<?xml version="1.0" encoding="UTF-8"?>
<svg xmlns="http://www.w3.org/2000/svg" viewBox="0 0 24 24" width="48" height="48">
  <rect width="24" height="24" fill="#F7DF1E"/>
  <path d="M6.019,17.271l1.502-0.908c0.289,0.514,0.553,0.95,1.183,0.95c0.605,0,0.987-0.237,0.987-1.158v-6.251h1.842v6.272c0,1.908-1.117,2.779-2.747,2.779c-1.473,0-2.332-0.763-2.766-1.684 M13.885,17.048l1.502-0.868c0.395,0.645,0.911,1.119,1.823,1.119c0.766,0,1.254-0.382,1.254-0.908c0-0.632-0.5-0.855-1.342-1.223l-0.461-0.198c-1.329-0.566-2.211-1.276-2.211-2.779c0-1.382,1.052-2.435,2.698-2.435c1.171,0,2.013,0.408,2.619,1.473l-1.434,0.921c-0.316-0.566-0.658-0.789-1.184-0.789c-0.539,0-0.882,0.342-0.882,0.789c0,0.553,0.342,0.776,1.132,1.119l0.461,0.197c1.566,0.671,2.448,1.356,2.448,2.898c0,1.657-1.302,2.566-3.052,2.566c-1.71,0-2.817-0.813-3.355-1.882" fill="#000000"/>
</svg>
