<?xml version="1.0" encoding="UTF-8"?>
<svg xmlns="http://www.w3.org/2000/svg" viewBox="0 0 24 24" width="48" height="48">
  <rect width="24" height="24" rx="2" fill="#3178C6"/>
  <path d="M5,12.986v2.33h2.332v6.705H9.87v-6.705h2.332v-2.33H5z M19.572,12.986c-0.482,0-0.945,0.078-1.39,0.234c-0.447,0.156-0.82,0.374-1.12,0.656V12.8h-2.332v9.221h2.332v-5.016c0-0.286,0.026-0.546,0.078-0.78c0.052-0.234,0.143-0.435,0.273-0.603c0.13-0.168,0.299-0.299,0.507-0.39c0.208-0.091,0.468-0.137,0.78-0.137c0.42,0,0.741,0.113,0.962,0.338c0.221,0.225,0.332,0.563,0.332,1.014v5.575h2.332v-6.003c0-0.767-0.231-1.36-0.694-1.781C20.569,13.196,20.002,12.986,19.572,12.986z" fill="white"/>
</svg>
